# xmcd
#
# Track frame offsets:
#	150
#	14978
#	28444
#	43732
#	58519
#	71576
#	85863
#	100941
#	115337
#	129910
#	143960
#	157126
#	172449
#	187596
#	202064
#	216843
#	230348
#	245536
#
# Disc length: 3453 seconds
#
# Revision: 0
# Processed by: cddbd v1.5.2PL0 Copyright (c) Steve Scherf et al.
# Submitted via: EasyCDDAExtractor 16.0.6.1
#
DISCID=130d7b12
DTITLE=Συλλογικός δίσκος - Το σμυρναίϊκο τραγούδι 1923-1940 3
DYEAR=2009
DGENRE=Σμυρναίϊκη
TTITLE0=Ρούκουνας Κώστας ή Σαμιωτάκης - Mαριγούλα [1936, Ιωάννης Καραμαούνας]
TTITLE1=Βιδάλης Γιώργος - Νέα Σμυρνιοπούλα [1927, Παν. Τούντας]
TTITLE2=Εσκενάζυ Ρόζα - Μην ορκίζεσαι βρε ψεύτρα [1936, Δημ. Σέμσης-Γ. Πετροπο
TTITLE2=υλέας]
TTITLE3=Μαρίκα η Πολίτισσα - Μαστούρια [1932, Ιάκωβος Μοντανάρης]
TTITLE4=Διαμαντίδης Αντώνης ή Νταλγκάς - Ελενάρα [1929, Αντώνης Διαμαντίδης]
TTITLE5=Εσκενάζυ Ρόζα - Με βρήκες ή σε βρήκα [1935, Γρηγόρης Ασίκης]
TTITLE6=Περπινιάδης Στελλάκης - Μπίντα Γιάλα  [1933, Παν. Τούντας]
TTITLE7=Αμπατζή Ρίτα - Το φλυτζάνι του Γιάννη [1934, Μαν. Χρυσαφάκης]
TTITLE8=Εσκενάζυ Ρόζα - Δυό σεβντάδες [1933, Παν. Τούντας]
TTITLE9=Ρούκουνας Κώστας ή Σαμιωτάκης - Ο μόρτης [1932, Δημ. Λορέντζος ή Μπαρο
TTITLE9=ύσης]
TTITLE10=Βιδάλης Γιώργος - Παραπονιάρα μου [1928, Παν. Τούντας]
TTITLE11=Εσκενάζυ Ρόζα - Η γλεντζού η Σμυρνιά [1934, Δ. Λαδόπουλος]
TTITLE12=Περπινιάδης Στελλάκης - Στου Λινάρδου την ταβέρνα [1936, Παν. Τούντας
TTITLE12=]
TTITLE13=Αμπατζή Ρίτα - Το μάγκικο [1928, Γ. Πετροπουλέας-Κ. Καρίπης]
TTITLE14=Μαρσέλος Κώστας ή Νούρος - Σμυρναίϊκο μινόρε [1930, παραδοσιακό]
TTITLE15=Καρίπης Κώστας - Τζιβαέρι [1928, παραδοσιακό]
TTITLE16=Μαρίκα η Πολίτισσα - Στο καφέ αμάν [1930, Κώστας Σκαρβέλης]
TTITLE17=Περπινιάδης Στελλάκης - Φέρτε πρέζα να πρεζάρω [1934, Παν. Τούντας]
EXTD=
EXTT0=
EXTT1=
EXTT2=
EXTT3=
EXTT4=
EXTT5=
EXTT6=
EXTT7=
EXTT8=
EXTT9=
EXTT10=
EXTT11=
EXTT12=
EXTT13=
EXTT14=
EXTT15=
EXTT16=
EXTT17=
PLAYORDER=
